<svg width="18" height="18" viewBox="0 0 18 18" fill="none" xmlns="http://www.w3.org/2000/svg">
<path d="M16 9C16 5.13401 12.866 2 9 2C7.68 2 6.4458 2.36484 5.39202 3H6C6.55228 3 7 3.44772 7 4C7 4.55228 6.55228 5 6 5H3C2.44772 5 2 4.55228 2 4C2 3 2 2 2 1C2 0.44772 2.44772 0 3 0C3.55228 0 4 0.44772 4 1V1.51575C5.42985 0.5588 7.15 0 9 0C13.9706 0 18 4.02944 18 9C18 13.9706 13.9706 18 9 18C4.02944 18 0 13.9706 0 9C0 8.6199 0.0236201 8.2448 0.0695801 7.8763C0.13792 7.3282 0.63759 6.93935 1.18563 7.0077C1.73367 7.076 2.12255 7.5757 2.05421 8.1237C2.01846 8.4104 2 8.7028 2 9C2 12.866 5.13401 16 9 16C12.866 16 16 12.866 16 9Z" fill="#212121"/>
</svg>
