<svg width="69" height="67" viewBox="0 0 69 67" fill="none" xmlns="http://www.w3.org/2000/svg">
<path d="M25.7934 0.144531C11.5481 0.144531 0 12.4861 0 27.7101C0 31.8762 0.866417 35.8328 2.41894 39.3792C1.37991 43.882 0.479894 48.6912 0.0747662 50.9288C-0.383668 53.4612 1.67602 55.6797 4.04075 55.2298C6.18439 54.8218 10.844 53.9037 15.1714 52.8364C18.4134 54.4039 22.0113 55.2757 25.7934 55.2757C40.0385 55.2757 51.5867 42.9341 51.5867 27.7101C51.5867 12.4861 40.0385 0.144531 25.7934 0.144531ZM25.6624 58.9497C30.2646 63.5127 36.4278 66.3027 43.2008 66.3027C46.9821 66.3027 50.5791 65.4313 53.8204 63.8644C57.4102 64.7624 61.3394 65.6584 63.8403 66.2171C66.9094 66.9025 69.5898 63.9585 68.8868 60.7062C68.328 58.1209 67.4469 54.1077 66.5765 50.4029C68.1282 46.8572 68.9941 42.9017 68.9941 38.7371C68.9941 26.6707 61.74 16.4154 51.6383 12.68C52.843 15.0214 53.775 17.5457 54.3882 20.204C60.0731 24.1314 63.8355 30.9647 63.8355 38.7371C63.8355 42.3809 63.0104 45.8108 61.5516 48.8327L61.1028 49.7626L61.3442 50.7763C62.1276 54.0676 62.9485 57.7596 63.5504 60.5183C60.8882 59.9167 57.2994 59.0842 54.13 58.2778L53.2203 58.0466L52.3832 58.4917C49.6206 59.9615 46.5047 60.7896 43.2008 60.7896C39.557 60.7896 36.1338 59.78 33.1624 58.0088C30.8722 58.6248 28.4745 58.9519 26.0053 58.9519C25.8909 58.9519 25.7765 58.9512 25.6624 58.9497Z" fill="#FF8600"/>
</svg>
