<svg width="75" height="87" viewBox="0 0 75 87" fill="none" xmlns="http://www.w3.org/2000/svg">
<g filter="url(#filter0_d_350_274)">
<path d="M37.5 0.341797C22.082 0.341797 9.58333 12.8177 9.58333 28.2075C9.58333 35.3854 13.5452 42.3288 18.0246 47.9603C22.5663 53.6705 27.9935 58.4694 31.6315 61.4153C35.0757 64.2045 39.9243 64.2045 43.3685 61.4153C47.0066 58.4694 52.4336 53.6705 56.9754 47.9603C61.4547 42.3288 65.4167 35.3854 65.4167 28.2075C65.4167 12.8177 52.9178 0.341797 37.5 0.341797ZM46.8056 28.2075C46.8056 33.3374 42.6393 37.4961 37.5 37.4961C32.3607 37.4961 28.1944 33.3374 28.1944 28.2075C28.1944 23.0776 32.3607 18.919 37.5 18.919C42.6393 18.919 46.8056 23.0776 46.8056 28.2075ZM58.6482 51.7883C57.2959 53.3937 55.8952 54.9159 54.5042 56.3352C55.8279 56.7045 57.061 57.1147 58.1907 57.5587C60.7777 58.576 62.6816 59.7178 63.8924 60.8435C65.0992 61.9652 65.4167 62.8666 65.4167 63.5045C65.4167 64.1425 65.0992 65.0438 63.8924 66.1655C62.6816 67.2913 60.7777 68.4331 58.1907 69.4503C53.0343 71.4779 45.7202 72.7931 37.5 72.7931C29.28 72.7931 21.9657 71.4779 16.8091 69.4503C14.2225 68.4331 12.3183 67.2913 11.1075 66.1655C9.90084 65.0438 9.58333 64.1425 9.58333 63.5045C9.58333 62.8666 9.90084 61.9652 11.1075 60.8435C12.3183 59.7178 14.2225 58.576 16.8091 57.5587C17.9388 57.1147 19.172 56.7045 20.4957 56.3352C19.1049 54.9159 17.704 53.3937 16.3518 51.7883C15.8071 51.9759 15.2772 52.171 14.7627 52.3735C11.7922 53.5416 9.19928 55.0014 7.30221 56.7651C5.40104 58.5325 4 60.8079 4 63.5045C4 66.2012 5.40104 68.4765 7.30221 70.2439C9.19928 72.0077 11.7922 73.4675 14.7627 74.6356C20.7204 76.9782 28.7603 78.3663 37.5 78.3663C46.2398 78.3663 54.2798 76.9782 60.2372 74.6356C63.2079 73.4675 65.8008 72.0077 67.6976 70.2439C69.599 68.4765 71 66.2012 71 63.5045C71 60.8079 69.599 58.5325 67.6976 56.7651C65.8008 55.0014 63.2079 53.5416 60.2372 52.3735C59.7228 52.171 59.1927 51.9759 58.6482 51.7883Z" fill="#FF8600"/>
</g>
<defs>
<filter id="filter0_d_350_274" x="0" y="0.341797" width="75" height="86.0244" filterUnits="userSpaceOnUse" color-interpolation-filters="sRGB">
<feFlood flood-opacity="0" result="BackgroundImageFix"/>
<feColorMatrix in="SourceAlpha" type="matrix" values="0 0 0 0 0 0 0 0 0 0 0 0 0 0 0 0 0 0 127 0" result="hardAlpha"/>
<feOffset dy="4"/>
<feGaussianBlur stdDeviation="2"/>
<feComposite in2="hardAlpha" operator="out"/>
<feColorMatrix type="matrix" values="0 0 0 0 0 0 0 0 0 0 0 0 0 0 0 0 0 0 0.25 0"/>
<feBlend mode="normal" in2="BackgroundImageFix" result="effect1_dropShadow_350_274"/>
<feBlend mode="normal" in="SourceGraphic" in2="effect1_dropShadow_350_274" result="shape"/>
</filter>
</defs>
</svg>
