<svg width="62" height="75" viewBox="0 0 62 75" fill="none" xmlns="http://www.w3.org/2000/svg">
<path d="M10.4643 1.89346L15.2321 0.619353C19.6997 -0.574533 24.4728 1.35491 26.3864 5.12801L30.1936 12.6367C31.853 15.9087 30.9323 19.7565 27.9173 22.1496L19.5283 28.8088C20.046 32.7919 21.6469 36.7141 24.3311 40.5756C27.0157 44.4367 30.3681 47.6397 34.3888 50.1845L44.4647 47.3745C48.2839 46.3093 52.4432 47.5334 54.7859 50.4119L60.2432 57.1174C62.9668 60.4633 62.477 65.0796 59.0975 67.9167L55.4763 70.957C51.8719 73.9833 46.7237 75.0811 41.9612 73.8389C30.7175 70.9055 20.3799 62.1974 10.948 47.7145C1.50248 33.2101 -1.83112 20.9042 0.947229 10.7968C2.11637 6.54374 5.73677 3.15679 10.4643 1.89346Z" fill="#FF8600"/>
</svg>
