<svg width="30" height="31" viewBox="0 0 30 31" fill="none" xmlns="http://www.w3.org/2000/svg">
<path d="M25.3036 18.5961C27.5308 18.5961 29.3361 20.1569 29.3361 22.0825V23.5063C29.3361 24.3952 29.0147 25.2618 28.4169 25.985C25.645 29.3386 21.1187 31 14.9859 31C8.85175 31 4.32782 29.3379 1.56258 25.9825C0.967349 25.2602 0.647461 24.3955 0.647461 23.5086V22.0825C0.647461 20.1569 2.45284 18.5961 4.6799 18.5961H25.3036ZM14.9859 0C19.9374 0 23.9514 3.47042 23.9514 7.75139C23.9514 12.0324 19.9374 15.5028 14.9859 15.5028C10.0344 15.5028 6.02038 12.0324 6.02038 7.75139C6.02038 3.47042 10.0344 0 14.9859 0Z" fill="#212121"/>
</svg>
