<svg width="29" height="29" viewBox="0 0 29 29" fill="none" xmlns="http://www.w3.org/2000/svg">
<path d="M25.4611 0C27.2436 0 28.6886 1.82532 28.6886 4.07695V24.923C28.6886 27.1746 27.2436 29 25.4611 29H3.22747C1.44499 29 0 27.1746 0 24.923V4.07695C0 1.82532 1.44499 0 3.22747 0H25.4611ZM11.1168 15.4018H6.09633C5.55167 15.4018 5.10156 15.9132 5.03033 16.5763L5.0205 16.7608V17.6519L5.03179 17.8482C5.26505 19.866 6.60143 20.8394 8.60651 20.8394C10.516 20.8394 11.819 19.9573 12.1406 18.1314L12.1813 17.8503L12.1927 17.6536V16.7608C12.1927 16.0728 11.7879 15.5042 11.2628 15.4141L11.1168 15.4018ZM22.5923 16.3007H16.1406L15.9946 16.3132C15.4695 16.4031 15.0648 16.9717 15.0648 17.6597C15.0648 18.3477 15.4695 18.9163 15.9946 19.0064L16.1406 19.0187H22.5923L22.7383 19.0064C23.2633 18.9163 23.6681 18.3477 23.6681 17.6597C23.6681 16.9717 23.2633 16.4031 22.7383 16.3132L22.5923 16.3007ZM8.60658 8.15786C7.41828 8.15786 6.45498 9.37471 6.45498 10.8759C6.45498 12.3769 7.41828 13.5936 8.60658 13.5936C9.79488 13.5936 10.7582 12.3769 10.7582 10.8759C10.7582 9.37471 9.79488 8.15786 8.60658 8.15786ZM22.5923 9.96589H16.1406L15.9946 9.9783C15.4695 10.0683 15.0648 10.6369 15.0648 11.3249C15.0648 12.0129 15.4695 12.5815 15.9946 12.6715L16.1406 12.6839H22.5923L22.7383 12.6715C23.2633 12.5815 23.6681 12.0129 23.6681 11.3249C23.6681 10.6369 23.2633 10.0683 22.7383 9.9783L22.5923 9.96589Z" fill="#212121"/>
</svg>
