<svg width="30" height="29" viewBox="0 0 30 29" fill="none" xmlns="http://www.w3.org/2000/svg">
<path d="M17.3041 0.809343C15.9684 -0.269781 14.0151 -0.269781 12.6795 0.809343L1.92117 9.50116C1.11351 10.1537 0.647461 11.1141 0.647461 12.1261V26.3289C0.647461 27.8041 1.89621 29 3.43663 29H8.21806C9.75848 29 11.0072 27.8041 11.0072 26.3289V20.2196C11.0072 19.1827 11.8708 18.3391 12.9467 18.3122H17.0368C18.1128 18.3391 18.9763 19.1827 18.9763 20.2196V26.3289C18.9763 27.8041 20.225 29 21.7655 29H26.5469C28.0873 29 29.3361 27.8041 29.3361 26.3289V12.1261C29.3361 11.1141 28.87 10.1537 28.0623 9.50116L17.3041 0.809343Z" fill="#212121"/>
</svg>
