<svg width="30" height="29" viewBox="0 0 30 29" fill="none" xmlns="http://www.w3.org/2000/svg">
<path d="M12.1229 3.41176C12.1229 1.5275 13.4073 0 14.9918 0C16.5762 0 17.8606 1.5275 17.8606 3.41176V5.52545C23.0194 7.0384 26.8258 12.5846 26.8258 19.1881C26.8258 19.8949 26.3441 20.4675 25.75 20.4675H4.23354C3.63938 20.4675 3.15771 19.8949 3.15771 19.1881C3.15771 12.6023 6.98438 7.07924 12.1229 5.54279V3.41176ZM16.7848 9.38235C16.1907 9.38235 15.709 9.95517 15.709 10.6618C15.709 11.3684 16.1907 11.9412 16.7848 11.9412C18.5824 11.9412 19.8583 12.996 20.9238 14.8071C21.2644 15.3859 21.9353 15.5269 22.4221 15.1218C22.9088 14.7168 23.0274 13.919 22.6868 13.3401C21.3529 11.0728 19.4901 9.38235 16.7848 9.38235ZM0.647461 25.5882C0.647461 23.7039 1.93189 22.1765 3.51632 22.1765H26.4672C28.0517 22.1765 29.3361 23.7039 29.3361 25.5882C29.3361 27.4726 28.0517 29 26.4672 29H3.51632C1.93189 29 0.647461 27.4726 0.647461 25.5882Z" fill="#212121"/>
</svg>
